<svg xmlns="http://www.w3.org/2000/svg" viewBox="0 0 134.98 250.52"><defs><style>.cls-1{fill:#1a1a1a;}</style></defs><g id="Layer_2" data-name="Layer 2"><g id="Layer_1-2" data-name="Layer 1"><path class="cls-1" d="M115.48,135.58a67.27,67.27,0,0,0-48-20,27.4,27.4,0,1,1,27.4-27.4c0,.52,0,1,0,1.57s-.09,1.26-.17,1.88c0,0,0,0,0,.08a20.1,20.1,0,0,0,39.82,4.6h0q.24-2,.36-4v-.5h0c.09-1.37.13-2.73.13-4.11a67.14,67.14,0,0,0-18.34-46.21c-.46-.49-.93-1-1.41-1.45s-1-.94-1.45-1.41l0,0a.75.75,0,0,0-.14-.12l-.06-.06A67.46,67.46,0,0,0,40.2,26.06v-6A20.12,20.12,0,0,0,18.76,0C8.1.73,0,10,0,20.69V183a67.21,67.21,0,0,0,18,45.86l.14.15.08.09c.59.62,1.18,1.24,1.79,1.84A67.42,67.42,0,0,0,67.9,250.52a67.49,67.49,0,0,0,47.58-114.94ZM67,210.67a27.53,27.53,0,1,1,27.52-27.52A27.52,27.52,0,0,1,67,210.67Z"/></g></g></svg>